<svg xmlns="http://www.w3.org/2000/svg" viewBox="0 0 1006 626.2" role="img" aria-label="Map of the contiguous United States with California highlighted"><title>California within the contiguous United States</title><path d="M683.3 395.2L717.6 392.1L723.3 412.6L731.7 442.6L734.7 449.1L737.4 452.7L736.8 455.2L739.3 456.3L736.2 459.8L736.7 462.8L735.4 467.1L738.2 474.1L737.5 480.6L740.5 487L730.4 488.3L687.2 492.6L686.8 495.8L691.8 500L691.4 504.1L693.1 505.9L690.4 509.7L687.6 510.8L682 507.3L681 501.4L679.3 500.8L677.8 505.5L677.5 509.9L672 509.2L667.5 472.4L668.4 425.9L669 399.1L666.8 396.7L683.3 395.2ZM265.3 337L246.3 473.7L205.1 467.6L182.8 454.7L134.9 426.3L137.8 421.3L141.9 421.2L143.4 419.3L143.2 414.6L140.5 414L141 404.8L145.6 402.2L146.9 398.8L147.2 393L150.4 389.3L153.8 388.3L156.7 385.6L153.6 381.5L152.2 374.7L149.8 370.1L150.4 367.1L152.2 364.1L152.6 359.5L152 354.6L153.6 340.4L160.8 340.8L162.5 344.2L164.4 344.4L167.1 340.7L170.9 321.4L237.7 332.9L265.3 337ZM543.2 366L626.4 362.9L628.3 367.5L625.6 370.6L622.8 375.3L635.3 374.6L634.9 379.1L632.1 380.6L631.7 384.4L628.4 388.6L629 394.5L627.4 398.9L625.5 399.7L626.8 401.7L623.8 403.8L622.6 408L620.6 409.2L621.2 413.9L617.7 415.5L617.9 417.1L614 421.3L615.4 423.9L612 427.9L609.2 435.6L612.9 438.6L611.2 440.7L612.6 445.7L611.2 449.1L562 450.5L553.3 450.7L553 437.8L550.2 436.8L546.3 438.1L544.1 435.9L544.5 393L540.5 366.1L543.2 366ZM298.8 242.9L338.1 247.5L368.3 250.2L404.4 252.9L402.9 277.3L398.4 350.6L380.1 349.2L354.6 347.2L306.5 342.4L296 341L265.3 337L269.2 308.8L269.2 306.1L272.2 285.6L278.5 240.4L298.8 242.9ZM919 182.1L940.7 177L940.8 177.3L944.5 191.3L944 193.7L942.4 193.8L935.2 197.5L925.9 199.3L922.8 203.5L918.8 205.6L914.5 209.5L912.6 207.1L916.3 203.4L914.6 201.8L911.4 183.6L919 182.1ZM889.7 244.8L888.6 248L887.1 250L888.3 253.7L891.8 256.7L893.8 262.4L899 267.6L900.9 267.5L903.5 275.5L891.6 277.9L883.4 248.2L885.9 244.9L889.7 244.8ZM730.4 488.3L740.5 487L744.1 493.6L772.5 491.7L799.1 489.9L800.9 494.8L803.3 494.3L803.5 489.4L802.1 485L803.7 482.9L808.7 484.2L814.4 484.2L817.3 494.4L821.7 505.6L830.2 520L842.1 534.8L840.9 536.2L842.6 543.7L847.9 551.5L857 567.5L859.1 572.6L859.9 578L860.9 598L858.9 598.7L857.8 605.1L858.8 606.9L855.4 612L853.5 611.3L849.8 613.7L843 615.9L840.6 613.7L841 610L834.4 600.2L830.3 598.9L827.2 600.8L823.7 595.4L822.3 590.7L817 586L815.4 582.7L815.4 577.5L812.8 577L813.8 579.9L811.7 581L803 569.1L799.9 566.2L804.9 555.7L800.8 556.9L798.4 560.3L795 555.9L796.9 542.4L796 531.4L793.1 529.1L791.8 525.7L787.7 525.5L782.2 520.4L778.1 518.5L777.4 515L774.6 514L772 510.4L763.3 506.1L756.5 508.2L757.3 511.8L755 511.4L746.9 517L737.7 519.1L737.7 516.4L735.1 513.5L723.6 507.6L715.5 505.3L708.5 505.2L702.8 506.3L690.4 509.7L693.1 505.9L691.4 504.1L691.8 500L686.8 495.8L687.2 492.6L730.4 488.3ZM766.2 385.7L762.7 391.5L762.7 394L770 398.3L771.9 397.6L775.7 402.5L776.7 405.2L780.6 409.7L785.5 412.1L788.8 416.2L794.7 419.5L794.9 422.3L799 426.3L804.9 429.2L806.9 432.9L807.9 438L810.9 439.3L815.1 445.2L815.8 449.3L820.8 450.7L817.1 459.6L816.9 463.9L815.4 467.9L815.7 471.8L813.8 473.8L814.4 484.2L808.7 484.2L803.7 482.9L802.1 485L803.5 489.4L803.3 494.3L800.9 494.8L799.1 489.9L772.5 491.7L744.1 493.6L740.5 487L737.5 480.6L738.2 474.1L735.4 467.1L736.7 462.8L736.2 459.8L739.3 456.3L736.8 455.2L737.4 452.7L734.7 449.1L731.7 442.6L723.3 412.6L717.6 392.1L742.6 389.1L756.3 387.5L766.2 385.7ZM194.3 29.3L189.2 53.2L193 60.9L191.7 67.3L194.2 70.8L197.3 72.5L197.3 74.3L202 81.8L202.2 84.5L206 87.9L205.9 89.4L210.7 90.3L206.6 98.6L205 104.1L206 108.1L202.5 110.1L203.2 112.8L201.9 115.2L205 118.4L209.7 115.9L211.8 113.6L214.4 116.5L213.6 118.4L214.3 123.3L216.2 128.6L217.9 130.7L217 135.2L218.5 137.5L222 138.4L222.8 146.5L224.5 148.2L226.7 146.3L231.9 147.4L236.2 145.9L238.3 147.5L242.5 147.2L243.1 148.6L246.7 148.3L251.4 143.9L253.4 148.6L256.1 151.5L246.6 210.9L226.9 207.8L194 201.8L141.9 190.8L151.6 147.4L155.6 140.1L154.6 137.9L151.5 136.8L151 133.3L156.3 125.6L158.2 125.2L160.8 122.1L161 119.9L163.5 117.4L165.4 113.5L170.4 107.3L169.8 103.8L166.3 101.2L164.9 96.7L165.7 92.6L164.5 88L165.2 86.1L172.2 54.7L178.9 25.9L194.3 29.3ZM608.7 217.1L641.5 215.3L658.9 213.9L658.7 218.6L661.9 223.8L665.5 232.4L670.5 289.8L668.9 294.3L671.7 299.3L672.4 303.6L670.3 307.2L670 310.5L667.1 316L664.9 316.5L665.7 319.6L664.4 320.9L663.7 326.7L664.5 328.3L662.3 331.9L664.4 336L656.8 338.9L656.3 341.5L658.3 344.6L656.1 346.8L648.8 343.6L646.6 344L644 348.5L645.1 349.8L642 349.7L637.3 343.1L638.7 341.4L636.8 336.8L636.6 333.1L630.1 328.3L628.1 328.9L625.8 325.9L620 321.3L619.8 317.4L622.6 310.9L622 308.7L623.6 305.6L620.9 304.1L616.7 303.2L614.7 305.6L613.2 304.3L611.6 296.3L605.1 291.4L599.1 285.5L596.5 278.1L596 273.2L597.5 269.6L597.6 265.2L602.5 262.3L602.8 258.5L605.1 256L605.1 251.7L602 248.4L602.9 244.1L609.9 242.5L615.3 239.1L615.6 235.3L617.9 233.6L618.3 228.9L617.6 225.9L613.5 223.7L612.8 221.2L608.7 217.1ZM692.7 228.6L713.7 226.2L713.9 227.8L717.4 256.7L721.1 290.6L719.9 291.8L722.2 298.2L718.9 298.8L715.7 301.4L710.8 300.9L711.6 305.7L708.6 308L707.7 311.2L704.6 312.7L703.5 319L701.5 320.9L697.1 319L696.1 316.3L692.3 319.8L692.8 322.4L688.7 323.8L687.2 321.5L682.7 324.3L681.4 327L676.4 323.9L674 324.9L672.2 323.3L670.8 325.2L666 325.8L664.5 328.3L663.7 326.7L664.4 320.9L665.7 319.6L664.9 316.5L667.1 316L670 310.5L670.3 307.2L672.4 303.6L671.7 299.3L668.9 294.3L670.5 289.8L665.5 232.4L667.4 233.9L672.9 233.4L677.9 230.1L692.7 228.6ZM594.7 193.7L597.3 193.5L597.7 197.1L600.4 199.4L598.5 202.4L599.3 207.8L600.9 211.6L607.3 214.1L608.7 217.1L612.8 221.2L613.5 223.7L617.6 225.9L618.3 228.9L617.9 233.6L615.6 235.3L615.3 239.1L609.9 242.5L602.9 244.1L602 248.4L605.1 251.7L605.1 256L602.8 258.5L602.5 262.3L597.6 265.2L597.5 269.6L595.4 268.9L591.5 264.1L589.6 264.4L563.8 266L538.8 266.8L518.1 266.6L516 263.3L517 257.1L515.2 251.6L515.3 245.5L512.2 243.3L511.7 240L512.8 237.1L511.6 232.8L509.1 231.2L506 220.2L502.7 214.9L504.3 211.3L504.9 206.5L506.2 204.8L504 202.4L504.6 198.1L503.7 196.1L506 195.6L594.7 193.7ZM405.6 277.5L526.6 280.8L528.4 283.1L534.4 284.9L530.3 292L532.7 294.4L535.7 300.1L539.7 301.2L540.3 353.9L435.7 352.4L398.4 350.6L402.9 277.3L405.6 277.5ZM739 296.6L743.6 299.3L746.3 297.2L753.6 298.2L755.3 295.5L757.8 294.3L759.2 298.3L761.4 298.7L764.4 301.6L765 309L767.9 313.3L771.4 316.4L772.7 319.1L776.7 321.3L779.2 321.4L772.9 328.9L766.5 333.5L766.8 335.3L764.2 337.3L764.3 339.5L760.8 340.9L759.9 343.7L750.1 348.5L749.9 349L733.6 350.7L719.2 351.6L715.5 352.3L694.3 353.6L670.2 356.3L665.9 355.6L666.6 360L642.7 361.6L640.4 362L641.3 358.9L644.2 359.7L645.1 349.8L644 348.5L646.6 344L648.8 343.6L656.1 346.8L658.3 344.6L656.3 341.5L656.8 338.9L664.4 336L662.3 331.9L664.5 328.3L666 325.8L670.8 325.2L672.2 323.3L674 324.9L676.4 323.9L681.4 327L682.7 324.3L687.2 321.5L688.7 323.8L692.8 322.4L692.3 319.8L696.1 316.3L697.1 319L701.5 320.9L703.5 319L704.6 312.7L707.7 311.2L708.6 308L711.6 305.7L710.8 300.9L715.7 301.4L718.9 298.8L722.2 298.2L719.9 291.8L721.1 290.6L728.2 289.7L732.6 294.3L733.1 296.4L739 296.6ZM562 450.5L611.2 449.1L613.2 451.8L611.8 452.9L611.9 457.8L615 460.7L615.8 467.9L613.7 473.6L609.1 477.3L608.1 482.8L606 482.4L606.1 491.3L603.7 491.7L605.4 496.4L604 498.2L642.9 496L641.4 504.1L645.2 509.1L646.2 513.1L648.9 515.4L643 519.1L642.7 521.5L647.8 522.8L649.7 518.8L654.3 522.3L654.2 525.4L651.8 526.9L647 526L647.7 528.2L646.3 531.8L650.6 534.5L657.1 535L659.6 538.4L661.5 538.8L658.5 543.1L654.7 542.6L651.3 538.6L643.4 536.9L643.2 532.8L639.5 534.3L639.9 537.8L638.4 541L635.6 541.7L633.3 538.3L628.5 538.5L627 542.3L623.8 543.5L620.2 541.4L617.4 541.3L614.5 535.5L609.6 533.1L607.8 533.6L605.7 528.6L600.2 529.5L600 526.5L594.7 529.6L595.5 531.9L591.4 534.1L585 533.3L577.4 530.3L572 529L560.7 530.5L559.2 531.4L557.3 529.1L562.1 520.4L560.4 515.8L561.8 513.2L561 509.9L563 507.3L565 501L564.5 495.9L558.7 486.2L558.4 480.9L553.8 475.6L553.3 450.7L562 450.5ZM953 147.6L950.5 146.5L950.1 144.1L946.7 142.2L937.3 111.7L932.5 96.8L938.7 91.7L937.1 90.3L938.8 86L941.1 83.6L940.2 82.3L942.1 79.4L940.2 75.6L940.1 69L942 66.3L941.2 59.6L948.4 38.3L951.5 38.3L952.9 42.5L955.4 43.4L959.8 39.4L963 38.4L964.7 36.1L970.3 38.4L973.8 40.7L981.9 66.5L983.4 72.8L989.5 72.7L989.5 75.6L991.7 77.7L991.3 80.3L994.7 83.2L997.5 81.5L1003 88.8L1000.7 93.5L998.3 92.7L997.5 95.8L995 95.8L995.4 98.1L992.2 98.8L988.9 105.2L986.7 102.1L984.9 102.4L986.8 105.8L983.5 108.8L981.8 106.1L980.4 108.2L976.1 109.4L975 106L972.7 107.5L973.9 109.8L973 115.6L973.9 116.9L971.6 120.6L968.2 120.4L967.2 123.9L964.8 125L963.3 128L960.6 128.3L959.2 125.9L956.6 131.1L958.3 133.3L955.8 135L956.2 137.2L953.8 140.8L953 147.6ZM888.7 291.2L888.3 291.3L887.8 291.4L888.7 291.2ZM816.7 261.3L883.4 248.2L891.6 277.9L903.5 275.5L902.1 286.4L899.4 287.4L894.6 290L890.9 291.9L890.2 287.9L888.3 286.7L890.1 284.5L886.4 281.2L885.9 283.1L882 283.5L879.8 279.5L881 279.2L879.9 273.6L880.6 271.1L877.4 263.8L878.5 259L881.4 257.5L880.9 252.9L878.7 253.9L879.1 256.2L875 260.3L874.2 263.3L875.3 270.3L874.2 273.9L876.2 279.3L879.4 282.6L879.7 285.5L881.8 288.1L881.4 290.2L876.4 287.3L869.9 286.7L867.4 283.4L864.4 286.2L862.5 283.6L864.5 279.3L865.3 275.2L867.2 272.2L864.4 270.3L863.2 272.1L860.4 270.3L856.3 269.9L855.6 266.4L853.3 264.8L850.4 265L847 258.7L843.9 259.3L840.4 257.6L839.1 259.8L836.1 260.2L835.9 263L830.2 262.2L827.3 266.4L824.7 266.1L821.9 270.8L818.7 273.7L816.7 261.3ZM950.4 152.6L952.2 152.5L954 156.5L954.1 160L952.3 163.8L953.1 167.5L957 167L960.3 170.1L960.7 173.1L962.8 173.4L963.8 176L969.2 177L974.2 173.3L973.9 176.8L966.4 182L963.4 182.9L961 181.2L958.3 182.6L958.7 184.3L955.8 186.2L953.3 182.3L952.6 181.7L950.4 180.5L947.9 175.2L945.4 175.9L940.8 177.3L940.7 177L919 182.1L911.4 183.6L910.8 182.8L911.2 166.3L925.2 163.2L945.2 158.8L946.5 156.1L950.4 152.6ZM737.8 223.9L713.9 227.8L713.7 226.2L692.7 228.6L677.9 230.1L681.2 226.5L683 220.8L684.9 217.3L686.1 212.5L686.4 205.8L685.3 198.7L678.7 185.2L679.8 179.7L678 173.5L681.3 166.6L681.6 161.1L680.7 158.2L683.4 156.8L683.4 152.8L687.6 151.2L690.5 146.5L691.2 155.3L693 155.5L694.7 150.9L694 143.5L695.2 141.5L699.7 139.8L697.6 134.8L700.1 130.1L703.9 129.4L708.4 131.7L712.6 131.5L715.1 134.7L718.2 134.6L723.9 137L725.7 136.7L729.3 141.4L727.3 144.5L730 147.7L731.4 151.7L731.6 160.8L728.4 163.5L728.2 168.2L724.2 170.3L722.7 176.1L723.8 178.1L728.2 179.6L731 176.1L734 169.4L739.6 166.3L742.7 167.7L745 170.9L748.2 180.6L749.2 185.6L752 191.4L751.4 200.3L748.7 202L748.2 198.9L746.4 200.1L745.2 207.7L742 210.9L741.7 216.6L737.9 221.8L737.8 223.9ZM690.7 131.9L691.2 134.7L689.1 135.5L689.6 131.3L690.7 131.9ZM657 150.7L654.2 148.4L655.5 144.8L651.5 144.6L652.8 141.2L652.6 137L648.8 134.4L646.6 131.5L639.3 129.7L637.1 130.7L629.7 127.6L612.2 123.9L610.1 119.9L606.9 118.7L613.2 115.8L616 112.7L623.1 111L627.6 107.1L629.8 106.9L631.4 104.2L636.2 100.3L638.6 97.1L642.3 94.8L646.1 96.2L640.3 104.1L638.9 106.7L639.4 111.1L642.3 107.5L648 107.5L652.7 109.5L657.2 115.7L659.5 116.7L663.6 115.3L664.8 116.6L669 117L677.4 110.6L681.9 109.6L688.1 109.1L692.1 106.8L695.2 106.4L696.7 113L700 113.5L703.2 112.1L704.7 113.5L706.7 111.2L711.4 110L712.5 118.4L715.2 121.6L718.6 122.1L718.6 119.7L721.8 119.3L723.9 121.6L722.7 123.6L713.3 123.2L709.1 124.8L704 122.5L702.9 125.3L703.8 127.4L701.6 127.1L698.1 124.2L692.5 122.9L689.8 123.1L687.5 126.5L683.1 127.8L678.3 127.6L676.5 129.1L676.3 131.8L671.3 134.6L671.3 131.4L668.9 130.9L668.3 134.3L664.5 134.8L662.8 136.4L660.8 142.3L656.6 150L657 150.7ZM631.1 83.1L627.3 86.5L625.1 87L625.1 84.5L635 78.1L633.3 82.2L631.1 83.1ZM580.1 116.7L578.8 115.7L575.5 117.8L576.1 132.1L575.1 133.6L570.4 135.7L566.7 141L566.6 144.5L568.5 144.7L570.8 147.6L568.9 151.4L569.4 155.5L568.5 164.4L573.2 168.6L576.8 168.9L578.7 171.5L584.1 173.9L585 177.1L590.2 181L592.9 181.8L596.5 186.9L596.2 190.8L597.3 193.5L594.7 193.7L506 195.6L506.2 152.1L502.3 149.3L499.4 144.6L504 139.5L504.4 136.7L503.8 127.1L501.8 124.5L500.5 119.2L500.8 112.8L500.2 111.7L499.8 96.3L496.7 88.1L495.5 83.5L495.1 73.8L496.2 70.6L494.1 63L527.5 63L527.4 53.9L530.5 54.1L532.7 55.9L534.9 68.3L536.6 69.7L541.9 70L542.6 71.2L548.8 71.6L549.5 74.2L554.8 73.4L554.8 72.3L558.9 70.9L562.6 71.3L566.8 73.2L568 75.6L570.4 75.3L572.8 80.6L573.8 78.3L577.9 77.1L578.7 79.3L583.5 80.6L583.6 82.7L586.1 84.3L591 83.2L593.8 80.7L597.7 79L599.3 82.5L602 81.5L605.4 82.1L609.2 81.4L613.7 84.1L617.9 83.3L617.6 84.6L612.4 88L604.9 90.8L600.1 93.6L593.4 100.2L590.5 104.1L586 108.7L578.8 114.8L580.1 116.7ZM661.5 397.1L666.8 396.7L669 399.1L668.4 425.9L667.5 472.4L672 509.2L669.8 510.4L664.8 510.3L662.6 508.8L657.7 510.3L651 513.5L648.9 515.4L646.2 513.1L645.2 509.1L641.4 504.1L642.9 496L604 498.2L605.4 496.4L603.7 491.7L606.1 491.3L606 482.4L608.1 482.8L609.1 477.3L613.7 473.6L615.8 467.9L615 460.7L611.9 457.8L611.8 452.9L613.2 451.8L611.2 449.1L612.6 445.7L611.2 440.7L612.9 438.6L609.2 435.6L612 427.9L615.4 423.9L614 421.3L617.9 417.1L617.7 415.5L621.2 413.9L620.6 409.2L622.6 408L623.8 403.8L626.8 401.7L625.5 399.7L661.5 397.1ZM589.6 264.4L591.5 264.1L595.4 268.9L597.5 269.6L596 273.2L596.5 278.1L599.1 285.5L605.1 291.4L611.6 296.3L613.2 304.3L614.7 305.6L616.7 303.2L620.9 304.1L623.6 305.6L622 308.7L622.6 310.9L619.8 317.4L620 321.3L625.8 325.9L628.1 328.9L630.1 328.3L636.6 333.1L636.8 336.8L638.7 341.4L637.3 343.1L642 349.7L645.1 349.8L644.2 359.7L641.3 358.9L640.4 362L639.2 362.1L638.1 362.2L638.6 368.2L635.3 374.6L622.8 375.3L625.6 370.6L628.3 367.5L626.4 362.9L543.2 366L540.5 366.1L540.3 353.9L539.7 301.2L535.7 300.1L532.7 294.4L530.3 292L534.4 284.9L528.4 283.1L526.6 280.8L522 274.4L518.1 266.6L538.8 266.8L563.8 266L589.6 264.4ZM384.8 57.6L382.6 84.8L378.6 130.7L376.7 153.6L376.5 153.6L344.9 150.4L291.3 143.9L258 138.9L256.1 151.5L253.4 148.6L251.4 143.9L246.7 148.3L243.1 148.6L242.5 147.2L238.3 147.5L236.2 145.9L231.9 147.4L226.7 146.3L224.5 148.2L222.8 146.5L222 138.4L218.5 137.5L217 135.2L217.9 130.7L216.2 128.6L214.3 123.3L213.6 118.4L214.4 116.5L211.8 113.6L209.7 115.9L205 118.4L201.9 115.2L203.2 112.8L202.5 110.1L206 108.1L205 104.1L206.6 98.6L210.7 90.3L205.9 89.4L206 87.9L202.2 84.5L202 81.8L197.3 74.3L197.3 72.5L194.2 70.8L191.7 67.3L193 60.9L189.2 53.2L194.3 29.3L266 43L298.6 47.8L384.8 57.6ZM385.2 202.8L415 204.9L469.9 207.3L470.5 208.5L479.4 213.1L481.6 210.8L484.1 211.3L492.4 211.5L501.6 216.1L502.8 219.6L506 220.2L509.1 231.2L511.6 232.8L512.8 237.1L511.7 240L512.2 243.3L515.3 245.5L515.2 251.6L517 257.1L516 263.3L518.1 266.6L522 274.4L526.6 280.8L405.6 277.5L402.9 277.3L404.4 252.9L368.3 250.2L372.5 201.8L385.2 202.8ZM141.9 190.8L194 201.8L170.9 321.4L167.1 340.7L164.4 344.4L162.5 344.2L160.8 340.8L153.6 340.4L152 354.6L152.6 359.5L152.2 364.1L150.4 367.1L131.9 339.2L121.6 323.7L107.5 302.6L90.1 276.3L72 249.2L79.8 219.4L90.3 178.5L112.8 184.3L141.9 190.8ZM932.5 96.8L937.3 111.7L946.7 142.2L950.1 144.1L950.5 146.5L953 147.6L952.2 152.5L950.4 152.6L946.5 156.1L945.2 158.8L925.2 163.2L923.2 161.8L922.5 158.2L923.7 156.6L922.7 153.3L921.4 143L923.2 137.6L923.3 132L924.3 129.6L922.7 123.9L927.7 120.2L929.4 115.6L926.9 112.1L928.1 107.7L927.3 105.4L928.1 98.8L932 98.4L932.5 96.8ZM903.4 208.3L910.1 210.3L909.6 217.7L907 219.9L906.3 223.9L911.6 224.6L912.7 227.2L913.5 240.5L910.1 251.3L907.1 254.9L905.2 261.6L902.6 258.1L896.9 257.3L889.3 253.5L888.1 250.1L887.9 249.6L888.6 248L889.7 244.8L894.1 241.8L894 239.9L898.6 234.7L899 232.5L892.8 228.8L891.9 225.8L889.5 225.5L888.7 222.8L890.5 218.1L888.5 215.9L891.8 210L892.2 207.2L894.1 204.9L903.4 208.3ZM296 341L306.5 342.4L354.6 347.2L380.1 349.2L379.2 361.3L378.5 361.2L373.9 421.7L371.6 446.3L369.8 470.6L297.7 463.8L296.9 466.2L298.9 469.2L264.8 465.1L263.4 476L246.3 473.7L265.3 337L296 341ZM896.9 113.1L898.3 118L898.4 122.6L901 126.4L901.6 131.1L900.9 136.3L903.9 142.4L903.4 144.6L907.1 147.8L910.5 164.2L911.2 166.3L910.8 182.8L911.4 183.6L914.6 201.8L916.3 203.4L912.6 207.1L914.5 209.5L922.5 209.6L923.7 207.8L930.1 206.2L933.2 204.6L937.6 199.5L938.7 202.1L941.8 202.6L936.2 207.7L923.9 216.3L918.4 218.7L914.6 219.4L912.1 221.2L909.6 217.7L910.1 210.3L903.4 208.3L894.1 204.9L893 203.4L890.3 203.9L886.2 200.6L885.8 197L883.1 194.7L881.8 195.1L879.1 192.3L802.1 207.4L801 201.4L801 201L810.5 192.3L811.6 188.7L814.6 185.9L812.5 182L811 181.5L808.8 175.2L818.3 170.6L827.3 169L831 169L835.4 170.8L837.6 169.3L845.1 167.9L849.2 165.3L853.1 160L856.2 159.2L854.9 152.7L855.7 148.6L851.3 146.8L851.5 143.7L857.4 138.2L859.2 134.2L865.5 124.5L872.2 118.8L883.6 116.8L896.9 113.1ZM801.6 342L814.6 340.3L829.5 337.9L898.2 324.2L902.4 333.3L896.9 333.5L896.5 334.8L890.3 337.6L889.7 339.1L885.5 340.4L886.1 342.1L891 339.8L892 340.7L897.4 338.3L899.8 340.1L903 338.5L905.5 344L904.9 346.9L902.7 347.7L899.2 354.6L892.8 356.2L892.6 360.5L896.2 364L898.6 364.3L895.8 371.8L892.2 371.7L886.2 373.7L882.2 375.9L876.5 381.9L872.3 388.9L871 397.1L866.6 396.1L859.8 399L833.6 380.1L811.8 383.4L811.6 380.6L808 377L806.2 378.7L805.7 376.3L781.7 378.7L776.5 380.4L772.7 383.2L766.2 385.7L756.3 387.5L742.6 389.1L742.5 383.3L746.2 382.3L747.2 378.1L751.5 373.9L756.8 373.1L761.1 368.8L765.8 366.8L769.3 360.8L771.7 358.8L772.6 361.1L779.5 355.4L783 355.8L784.8 351L788.2 349.2L788.1 343.4L801.6 342ZM494.1 63L496.2 70.6L495.1 73.8L495.5 83.5L496.7 88.1L499.8 96.3L500.2 111.7L500.8 112.8L500.5 119.2L501.8 124.5L503.8 127.1L504.4 136.7L378.6 130.7L382.6 84.8L384.8 57.6L494.1 63ZM788.9 210.2L794.2 242.5L791.7 244.2L793.4 246.7L793.9 250.4L792.4 256.6L792.1 265.7L786.3 274.6L784.2 276L781.9 274.7L780.3 278.5L778.2 278.7L776.6 283.7L777.5 286.4L775.9 288.9L772.7 285.6L770.1 291.9L771.5 295.5L769.5 297.1L769.2 300.4L764.4 301.6L761.4 298.7L759.2 298.3L757.8 294.3L755.3 295.5L753.6 298.2L746.3 297.2L743.6 299.3L739 296.6L733.1 296.4L732.6 294.3L728.2 289.7L721.1 290.6L717.4 256.7L713.9 227.8L737.8 223.9L745.2 226.2L747.8 227.9L749.3 225.8L753.7 229.1L756.3 229.9L764.2 225.5L769.1 225.5L773.7 220.2L780.7 214.6L788.9 210.2L788.9 210.2ZM435.7 352.4L540.3 353.9L540.5 366.1L544.5 393L544.1 435.9L536.4 433.3L534.5 430.5L529.3 428.2L528 430.3L522.9 430.2L521.8 428.9L517.1 431.3L515.1 430L510.9 431.2L506.9 434.9L505.4 432.7L501.3 431L496.9 430.9L495.5 428.1L490.4 433.5L488.8 430.5L486.5 431.4L484.8 429.3L480.2 427.4L476.6 430.5L475.2 427.2L472.3 426.7L470.8 424L467 422.8L464.4 425L462.8 423L458.9 423.2L454.6 420.9L450.6 421L449.4 416.3L443.1 415.8L440.7 416.5L436.4 411.7L434.9 411.9L436.9 364.6L402.1 362.8L379.2 361.3L380.1 349.2L398.4 350.6L435.7 352.4ZM63.7 66L65.3 66.2L68 69.6L68.7 72.9L67.5 80.1L75.1 85L83.3 83.3L87.9 84.2L92.7 86.9L92.8 88.6L102.6 87.6L104.5 89.4L109.5 90L114.1 88.7L121.8 88.5L128.4 89.6L131 88.6L164.9 96.7L166.3 101.2L169.8 103.8L170.4 107.3L165.4 113.5L163.5 117.4L161 119.9L160.8 122.1L158.2 125.2L156.3 125.6L151 133.3L151.5 136.8L154.6 137.9L155.6 140.1L151.6 147.4L141.9 190.8L112.8 184.3L90.3 178.5L72.4 173.8L49.5 167L34.8 162.9L18 158L16.4 154.6L17.4 146.6L19.3 141.5L18.2 136.7L21.1 133.4L24.2 127.6L28.7 121.7L31.6 116.2L39.4 97L39.9 94.3L44.2 86.2L48.4 74.4L49.5 67.6L51.5 63.9L58.9 62.4L61 65.9L63.7 66ZM801 201.4L802.1 207.4L879.1 192.3L881.8 195.1L883.1 194.7L885.8 197L886.2 200.6L890.3 203.9L893 203.4L894.1 204.9L892.2 207.2L891.8 210L888.5 215.9L890.5 218.1L888.7 222.8L889.5 225.5L891.9 225.8L892.8 228.8L899 232.5L898.6 234.7L894 239.9L894.1 241.8L889.7 244.8L885.9 244.9L883.4 248.2L816.7 261.3L797.8 264.5L794.2 242.5L788.9 210.2L788.9 210.2L791.9 208.4L801 201L801 201.4ZM953.3 182.3L955.8 186.2L952.5 187.7L953.3 182.3ZM945.4 175.9L947.9 175.2L950.4 180.5L952.6 181.7L950.4 181.9L949.5 185.8L950.3 190.9L944 193.7L944.5 191.3L940.8 177.3L945.4 175.9ZM772.7 383.2L776.5 380.4L781.7 378.7L805.7 376.3L806.2 378.7L808 377L811.6 380.6L811.8 383.4L833.6 380.1L859.8 399L856.6 400.8L853 405.6L849.9 412.5L850.1 417.6L847.4 422.1L842.9 422.9L842.5 426L838.3 429.9L836.3 433.8L832.4 436L828.5 440.4L828.3 442.2L824.5 444.8L820.8 450.7L815.8 449.3L815.1 445.2L810.9 439.3L807.9 438L806.9 432.9L804.9 429.2L799 426.3L794.9 422.3L794.7 419.5L788.8 416.2L785.5 412.1L780.6 409.7L776.7 405.2L775.7 402.5L771.9 397.6L770 398.3L762.7 394L762.7 391.5L766.2 385.7L772.7 383.2ZM378.6 130.7L504.4 136.7L504 139.5L499.4 144.6L502.3 149.3L506.2 152.1L506 195.6L503.7 196.1L504.6 198.1L504 202.4L506.2 204.8L504.9 206.5L504.3 211.3L502.7 214.9L506 220.2L502.8 219.6L501.6 216.1L492.4 211.5L484.1 211.3L481.6 210.8L479.4 213.1L470.5 208.5L469.9 207.3L415 204.9L385.2 202.8L372.5 201.8L376.5 153.6L376.7 153.6L378.6 130.7ZM666.6 360L665.9 355.6L670.2 356.3L694.3 353.6L715.5 352.3L719.2 351.6L733.6 350.7L749.9 349L750.1 348.5L788.1 343.4L788.2 349.2L784.8 351L783 355.8L779.5 355.4L772.6 361.1L771.7 358.8L769.3 360.8L765.8 366.8L761.1 368.8L756.8 373.1L751.5 373.9L747.2 378.1L746.2 382.3L742.5 383.3L742.6 389.1L717.6 392.1L683.3 395.2L666.8 396.7L661.5 397.1L625.5 399.7L627.4 398.9L629 394.5L628.4 388.6L631.7 384.4L632.1 380.6L634.9 379.1L635.3 374.6L638.6 368.2L638.1 362.2L639.2 362.1L640.4 362L642.7 361.6L666.6 360ZM402.1 362.8L436.9 364.6L434.9 411.9L436.4 411.7L440.7 416.5L443.1 415.8L449.4 416.3L450.6 421L454.6 420.9L458.9 423.2L462.8 423L464.4 425L467 422.8L470.8 424L472.3 426.7L475.2 427.2L476.6 430.5L480.2 427.4L484.8 429.3L486.5 431.4L488.8 430.5L490.4 433.5L495.5 428.1L496.9 430.9L501.3 431L505.4 432.7L506.9 434.9L510.9 431.2L515.1 430L517.1 431.3L521.8 428.9L522.9 430.2L528 430.3L529.3 428.2L534.5 430.5L536.4 433.3L544.1 435.9L546.3 438.1L550.2 436.8L553 437.8L553.3 450.7L553.8 475.6L558.4 480.9L558.7 486.2L564.5 495.9L565 501L563 507.3L561 509.9L561.8 513.2L560.4 515.8L562.1 520.4L557.3 529.1L559.2 531.4L555.8 531.6L544.9 535.1L541 533.3L540.2 529.4L537.5 532.2L535.6 531.6L534.6 535L536.8 536.4L537.2 540.9L533.3 545.7L526.9 551.7L514.2 558.1L512.9 557.1L509 558.7L508.9 557.2L503.7 558.2L501.3 555.2L499.7 555.8L505.3 562.1L501.2 564L497.4 562.8L496.7 567.2L491.9 571.6L486.9 579.9L483.6 588.5L481.2 587.8L480.6 591L483.1 590.2L481.8 596.5L480.1 596.7L479.9 600.3L481.9 602.3L482.4 609.5L484.8 612.1L485.3 616.7L487.2 620.8L480.4 623.2L477.7 620L472.6 618.7L465.7 618.8L459.9 614.7L455.5 614.2L452.3 611L447.7 609.8L444.7 606.7L443 599.4L439.2 594.9L439.8 591.2L438.2 587.2L438.9 583.8L436.3 579.9L434.1 579.4L430.6 575.8L429.6 571.4L426.6 567.3L422.2 563.8L420.3 556.5L418.3 554.4L415.8 548.5L415.1 543.7L412.6 540.1L408.3 536.8L407.4 534.7L403.3 532.6L400.4 527.1L391.3 525.4L385.8 525.3L381.2 523.1L380 525.6L374.9 526L370.8 530.8L367.9 538.7L366.6 538.7L363.4 543.2L359.9 543.1L355 539L342.4 532L340.2 528.6L335.4 525.1L332.5 518L332.8 511.7L329.8 506.4L329.4 502L327.4 499L319.8 494.1L316 488.1L312.8 485.8L309.6 480.6L304.7 477.6L301.8 470.8L298.9 469.2L296.9 466.2L297.7 463.8L369.8 470.6L371.6 446.3L373.9 421.7L378.5 361.2L379.2 361.3L402.1 362.8ZM226.9 207.8L246.6 210.9L242.8 235L278.5 240.4L272.2 285.6L269.2 306.1L269.2 308.8L265.3 337L237.7 332.9L170.9 321.4L194 201.8L226.9 207.8ZM927.3 105.4L928.1 107.7L926.9 112.1L929.4 115.6L927.7 120.2L922.7 123.9L924.3 129.6L923.3 132L923.2 137.6L921.4 143L922.7 153.3L923.7 156.6L922.5 158.2L923.2 161.8L925.2 163.2L911.2 166.3L910.5 164.2L907.1 147.8L903.4 144.6L903.9 142.4L900.9 136.3L901.6 131.1L901 126.4L898.4 122.6L898.3 118L896.9 113.1L914.1 109.1L927.3 105.4ZM899.4 287.4L902.1 286.4L900.6 291L898.4 293L898.1 298.8L896.1 308.5L893.3 311L891.6 308L891.7 300.3L894.6 290L899.4 287.4ZM888.3 291.3L888.7 291.2L887.8 291.4L888.3 291.3ZM838.3 263.7L849.3 269.9L850.4 265L853.3 264.8L855.6 266.4L856.3 269.9L860.4 270.3L863.2 272.1L865.3 275.2L864.5 279.3L862.5 280.8L861.7 284.5L863 286.9L867.8 285.1L869.5 288.7L876.3 288.9L878.7 291.6L884.6 293.8L883.6 300.9L886.9 305.7L884.8 308.7L885.2 311.8L887.9 313.1L885.9 316.6L881.3 313.6L880.6 315.1L884.6 317.1L893.9 315.8L898.2 324.2L829.5 337.9L814.6 340.3L801.6 342L788.1 343.4L750.1 348.5L759.9 343.7L760.8 340.9L764.3 339.5L764.2 337.3L766.8 335.3L766.5 333.5L772.9 328.9L779.2 321.4L779.2 323.4L782.4 327.1L785.9 328.6L788.2 328.1L791.4 324.4L794.3 326.5L799 324.4L806.8 318.4L807.7 319.8L810.6 317.1L810 312.7L811.4 308.6L814.3 304.4L815 299.8L817.9 294.7L818.3 288.9L822 291.7L825.2 292.2L826.8 289.9L829.2 280.6L831.9 282.3L838.6 271L838.3 263.7ZM178.9 25.9L172.2 54.7L165.2 86.1L164.5 88L165.7 92.6L164.9 96.7L131 88.6L128.4 89.6L121.8 88.5L114.1 88.7L109.5 90L104.5 89.4L102.6 87.6L92.8 88.6L92.7 86.9L87.9 84.2L83.3 83.3L75.1 85L67.5 80.1L68.7 72.9L68 69.6L65.3 66.2L63.7 66L61 65.9L58.9 62.4L56.3 60.7L53.5 61.3L51.1 58.4L52.6 55.4L55.2 54.4L53.4 48.6L55.1 35.5L54.3 33.5L55.3 24.1L53.3 19.8L54.1 12.6L57.2 8.6L59.7 11.7L65.2 16.6L69.6 17.8L73.6 20.2L78 20.3L79.4 22.9L83.1 23.8L84.2 29.6L86.2 29.8L84.6 36.7L84 43.2L85.7 43L85.7 37.3L87.6 32.2L91.7 27.6L90.2 24.9L91.1 21.1L90.8 16.5L92.4 13.7L92.4 9.9L90.1 8.6L88.6 5.3L89.9 3L178.9 25.9ZM85.9 19L88.2 18.6L86.5 23.2L84.6 20.7L85.9 19ZM82.9 11.3L85.5 8.8L86.8 13.1L85.2 16.1L81.8 14.2L82.9 11.3ZM794.2 242.5L797.8 264.5L816.7 261.3L818.7 273.7L821.9 270.8L824.7 266.1L827.3 266.4L830.2 262.2L835.9 263L836.1 260.2L839.1 259.8L840.4 257.6L843.9 259.3L847 258.7L850.4 265L849.3 269.9L838.3 263.7L838.6 271L831.9 282.3L829.2 280.6L826.8 289.9L825.2 292.2L822 291.7L818.3 288.9L817.9 294.7L815 299.8L814.3 304.4L811.4 308.6L810 312.7L810.6 317.1L807.7 319.8L806.8 318.4L799 324.4L794.3 326.5L791.4 324.4L788.2 328.1L785.9 328.6L782.4 327.1L779.2 323.4L779.2 321.4L776.7 321.3L772.7 319.1L771.4 316.4L767.9 313.3L765 309L764.4 301.6L769.2 300.4L769.5 297.1L771.5 295.5L770.1 291.9L772.7 285.6L775.9 288.9L777.5 286.4L776.6 283.7L778.2 278.7L780.3 278.5L781.9 274.7L784.2 276L786.3 274.6L792.1 265.7L792.4 256.6L793.9 250.4L793.4 246.7L791.7 244.2L794.2 242.5ZM606.9 118.7L610.1 119.9L612.2 123.9L629.7 127.6L637.1 130.7L639.3 129.7L646.6 131.5L648.8 134.4L652.6 137L652.8 141.2L651.5 144.6L655.5 144.8L654.2 148.4L657 150.7L656.6 153.6L653.4 154.4L651.1 160.2L650.4 164.1L652.4 164.6L654.8 161.9L657.2 156.9L660.6 154.7L662.8 148.4L666.2 146.8L666.3 149.9L664.1 153.1L660.3 163.5L659.4 169.2L659.9 173.2L658.2 174.7L657.1 180.2L658.1 184.8L656.8 188L655.4 195.7L656.3 201.7L658.9 206.8L658.9 213.9L641.5 215.3L608.7 217.1L607.3 214.1L600.9 211.6L599.3 207.8L598.5 202.4L600.4 199.4L597.7 197.1L597.3 193.5L596.2 190.8L596.5 186.9L592.9 181.8L590.2 181L585 177.1L584.1 173.9L578.7 171.5L576.8 168.9L573.2 168.6L568.5 164.4L569.4 155.5L568.9 151.4L570.8 147.6L568.5 144.7L566.6 144.5L566.7 141L570.4 135.7L575.1 133.6L576.1 132.1L575.5 117.8L578.8 115.7L580.1 116.7L583.9 116.8L595.2 112.2L599.4 109.7L600.9 111.4L598.8 114.6L604.5 118.4L606.9 118.7ZM291.3 143.9L344.9 150.4L376.5 153.6L372.5 201.8L368.3 250.2L338.1 247.5L298.8 242.9L278.5 240.4L242.8 235L246.6 210.9L256.1 151.5L258 138.9L291.3 143.9Z" fill="#dde3ea" stroke="#ffffff" stroke-width="0.7" stroke-linejoin="round"/><path d="M34.8 162.9L49.5 167L72.4 173.8L90.3 178.5L79.8 219.4L72 249.2L90.1 276.3L107.5 302.6L121.6 323.7L131.9 339.2L150.4 367.1L149.8 370.1L152.2 374.7L153.6 381.5L156.7 385.6L153.8 388.3L150.4 389.3L147.2 393L146.9 398.8L145.6 402.2L141 404.8L140.5 414L143.2 414.6L143.4 419.3L141.9 421.2L137.8 421.3L111.1 418.1L89.3 415.5L87.6 411.8L88.6 406.9L88.4 400.7L86.6 395.9L81.8 388.8L75.3 381.6L73.5 382.7L70.7 381.1L71.7 378.8L69.5 373.2L64.7 373.1L57.5 367.7L57.1 364.5L52.6 359.7L46.4 358.3L41.8 355.4L35.3 354.4L32.7 350.4L35.2 344L34.3 342.7L36.3 338.2L32.2 333.4L33.3 328.6L31.5 327.8L29.6 322.9L27.6 321.4L27.4 318.6L22.9 306.9L20.3 303.2L21.7 295.4L23 296.4L25.6 292.3L24.1 287.4L20.7 287L17.5 282.1L16.9 278.7L18 276L16.9 271.6L18.7 265.5L22.1 266.4L23.2 257.4L21.4 257.9L19.9 262L16.1 261.9L12.7 257.5L13.6 251.7L12.2 246.6L9.3 242.8L8.3 239.2L4.8 231.6L6.2 230L6.1 221.5L8.5 217.5L8.9 210.5L6.3 202.7L3 197.8L3.4 193.3L10.9 184.4L12.9 181.2L12.8 178.3L16.6 171.8L17.1 165L15.7 162.9L18 158L34.8 162.9Z" fill="#1b4d89" stroke="#12314f" stroke-width="0.8" stroke-linejoin="round"/></svg>